<svg height="512pt" viewBox="0 0 512 512" width="512pt" xmlns="http://www.w3.org/2000/svg"><path d="m452 40h-24v-40h-40v40h-62v-40h-40v40h-60v-40h-40v40h-62v-40h-40v40h-24c-33.085938 0-60 26.914062-60 60v352c0 33.085938 26.914062 60 60 60h392c33.085938 0 60-26.914062 60-60v-352c0-33.085938-26.914062-60-60-60zm20 412c0 11.027344-8.972656 20-20 20h-392c-11.027344 0-20-8.972656-20-20v-43h392v-40h-392v-61h392v-40h-392v-58h392v-40h-392v-70c0-11.027344 8.972656-20 20-20h24v40h40v-40h62v40h40v-40h60v40h40v-40h62v40h40v-40h24c11.027344 0 20 8.972656 20 20zm0 0"/></svg>