<?xml version="1.0" encoding="UTF-8"?>
<svg width="73px" height="73px" viewBox="0 0 73 73" version="1.1" xmlns="http://www.w3.org/2000/svg" xmlns:xlink="http://www.w3.org/1999/xlink">
    <!-- Generator: Sketch 58 (84663) - https://sketch.com -->
    <title>Add</title>
    <desc>Created with Sketch.</desc>
    <defs>
        <circle id="path-1" cx="26.5" cy="26.5" r="26.5"></circle>
        <filter x="-30.2%" y="-26.4%" width="160.4%" height="160.4%" filterUnits="objectBoundingBox" id="filter-2">
            <feOffset dx="0" dy="2" in="SourceAlpha" result="shadowOffsetOuter1"></feOffset>
            <feGaussianBlur stdDeviation="5" in="shadowOffsetOuter1" result="shadowBlurOuter1"></feGaussianBlur>
            <feColorMatrix values="0 0 0 0 0   0 0 0 0 0   0 0 0 0 0  0 0 0 0.08 0" type="matrix" in="shadowBlurOuter1"></feColorMatrix>
        </filter>
    </defs>
    <g id="New-Ideas" stroke="none" stroke-width="1" fill="none" fill-rule="evenodd">
        <g id="First-Task-Prompt" transform="translate(-162.000000, -663.000000)">
            <g id="Bottom-Nav" transform="translate(0.000000, 658.000000)">
                <g id="Nav-Options" transform="translate(27.000000, 13.000000)">
                    <g id="Add" transform="translate(145.000000, 0.000000)">
                        <path d="M26.5,14 C27.6045695,14 28.5,14.8954305 28.5,16 L28.5,24.5 L37,24.5 C38.1045695,24.5 39,25.3954305 39,26.5 C39,27.6045695 38.1045695,28.5 37,28.5 L28.5,28.5 L28.5,37 C28.5,38.1045695 27.6045695,39 26.5,39 C25.3954305,39 24.5,38.1045695 24.5,37 L24.5,28.5 L16,28.5 C14.8954305,28.5 14,27.6045695 14,26.5 C14,25.3954305 14.8954305,24.5 16,24.5 L24.5,24.5 L24.5,16 C24.5,14.8954305 25.3954305,14 26.5,14 Z" id="Combined-Shape" fill="#00A4C4"></path>
                    </g>
                </g>
            </g>
        </g>
    </g>
</svg>