<svg id="Layer_1" data-name="Layer 1" xmlns="http://www.w3.org/2000/svg" viewBox="0 0 76.87 68.04"><defs><style>.cls-1{fill:#0c2d77;}.cls-2{fill:#007dc0;}.cls-3{fill:#abefff;}.cls-4{fill:#55c7e5;}</style></defs><path class="cls-1" d="M35.72,29.43,19.45,12.68h0l0,0h0A8.07,8.07,0,0,0,7.86,23.91h0l.14.13.08.09,7.07,7a4.21,4.21,0,0,1,1.13,2.78H37.83a6,6,0,0,0-2.11-4.45Z"/><path class="cls-2" d="M15.13,36.91,8.19,43.56h0A8.06,8.06,0,1,0,19.65,54.9l0,0L36.06,38.3h0A6,6,0,0,0,37.84,34s0-.07,0-.11H16.26A4.18,4.18,0,0,1,15.13,36.91Z"/><path class="cls-3" d="M71.21,33.91H49.06A5.78,5.78,0,0,1,47.49,38L34.91,51.32l0,0A8.29,8.29,0,1,0,46.56,63.11l0,0L68.78,39.9h0l0,0h0A8.28,8.28,0,0,0,71.22,34S71.21,34,71.21,33.91Z"/><path class="cls-4" d="M68.31,27.75V27.7L46.44,4.78l-.28-.3-.07-.07h0A8.3,8.3,0,1,0,34.69,16.49h0L47.48,30.05a5.77,5.77,0,0,1,1.58,3.86H71.21A8.25,8.25,0,0,0,68.31,27.75Z"/></svg>