<?xml version="1.0" encoding="utf-8"?>
<!-- Generator: Adobe Illustrator 25.0.1, SVG Export Plug-In . SVG Version: 6.00 Build 0)  -->
<svg version="1.1" id="Capa_1" xmlns="http://www.w3.org/2000/svg" xmlns:xlink="http://www.w3.org/1999/xlink" x="0px"
    y="0px" viewBox="0 0 480 480" style="enable-background:new 0 0 480 480;" xml:space="preserve">
    <g>
        <g>
            <path
                d="M479.2,292.7L479.2,292.7l-78.7-172l19.1-9.5l-7.2-14.3l-18.6,9.3l-2.5-5.5c-1.8-4-6.6-5.8-10.6-3.9
			c-1.7,0.8-3.1,2.2-3.9,3.9l-2.2,4.9c-13.6-6.3-28.3-9.6-43.3-9.6H264V80h16V64h-13.8l5.8-23c4.4-17.7-6.3-35.6-24-40
			c-17.7-4.4-35.6,6.3-40,24c-1.3,5.2-1.3,10.7,0,16l5.8,23H200v16h16v16h-67.2c-15,0-29.8,3.3-43.3,9.6l-2.2-4.9
			c-1.8-4-6.6-5.8-10.6-3.9c-1.7,0.8-3.1,2.2-3.9,3.9l-2.5,5.5l-18.6-9.3l-7.2,14.3l19.1,9.6L0.7,292.7c-0.5,1-0.7,2.2-0.7,3.3
			c0,30.9,25.1,56,56,56h80c30.9,0,56-25.1,56-56c0-1.1-0.3-2.3-0.8-3.3l-79-172.6c11.5-5.3,24-8.1,36.7-8.1H216v292.7L188.7,432
			H160c-22.1,0-40,17.9-40,40c0,4.4,3.6,8,8,8h224c4.4,0,8-3.6,8-8c0-22.1-17.9-40-40-40h-28.7L264,404.7V112h67.2
			c12.7,0,25.2,2.8,36.7,8.1l-79.1,172.6c-0.5,1-0.7,2.2-0.7,3.3c0,30.9,25.1,56,56,56h80c30.9,0,56-25.1,56-56
			C480,294.9,479.7,293.7,479.2,292.7z M136,336H56c-19,0-35.4-13.4-39.2-32h158.4C171.4,322.6,155,336,136,336z M171.5,288H20.5
			L94,127.7c1.3,0.4,2.8,0.4,4.1,0L171.5,288z M226.6,22.5c6.2-7.4,17.3-8.3,24.7-2.1c0.8,0.6,1.5,1.3,2.1,2.1
			c3.2,4.1,4.4,9.5,3.1,14.6L249.8,64h-19.5l-6.7-26.9C222.2,32,223.4,26.6,226.6,22.5z M232,96V80h16v16H232z M248,112v288h-16V112
			H248z M320,448c10.2,0,19.2,6.4,22.6,16H137.4c3.4-9.6,12.5-16,22.6-16H320z M268.7,432h-57.4l16-16h25.4L268.7,432z M381.9,127.7
			c1.3,0.5,2.8,0.4,4-0.2L459.5,288H308.5L381.9,127.7z M424,336h-80c-19,0-35.4-13.4-39.2-32h158.4C459.4,322.6,443,336,424,336z" />
        </g>
    </g>
</svg>
