<svg id="Layer_1" data-name="Layer 1" xmlns="http://www.w3.org/2000/svg" viewBox="0 0 288 288">
    <path
        d="M219.76,46.66h0a91.47,91.47,0,0,0-92.33,6.54L115.15,61.6a4.24,4.24,0,0,0,1.12,7.52L127,72.53a42.13,42.13,0,0,1,15.8,9.25l5.2,4.85a4.17,4.17,0,0,0,1.79,1l3.93,1a41.56,41.56,0,0,1,20,12.08,4.29,4.29,0,0,0,2,1.22l3.19.85-37.44,67.63H113.15L100,144.17a13.7,13.7,0,0,0-24.5,12.25l24.67,49.33a6.48,6.48,0,0,0,1.42,1.94L73.34,244a4.28,4.28,0,0,0-.89,2.6,4.24,4.24,0,0,0,4.23,4.23H97.84a4.21,4.21,0,0,0,3.3-1.59l15.66-19.57h80.56L213,249.26a4.23,4.23,0,0,0,3.31,1.59h25.26a12.63,12.63,0,0,0,10-20.33l-29.38-38.19a12.77,12.77,0,0,0-10.06-5H176.62l-7.23-14.46,31.89-57.62,2.23,2.08a4.28,4.28,0,0,0,2.11,1.06A41.62,41.62,0,0,1,226.44,129l3,2.77a4.29,4.29,0,0,0,1.79,1l6.88,1.83A42.11,42.11,0,0,1,254.31,143l8.58,7.27a4.23,4.23,0,0,0,7-3.05l.62-14.85A91.45,91.45,0,0,0,219.76,46.66ZM150.58,77.49l-2-1.9a50.47,50.47,0,0,0-19-11.12l-2.47-.79,5.12-3.51h0a82.46,82.46,0,0,1,69.46-11.44l-6.41.8A62.6,62.6,0,0,0,150.58,77.49ZM175.75,91a50,50,0,0,0-17.48-9.81,54.13,54.13,0,0,1,38-23.28l9.54-1.18-5.78,4a62.75,62.75,0,0,0-19.28,21.22Zm-29.33,87.91h10l-4.68,8.46h-10Zm-9.67,0-4.68,8.46H121.61l-4.23-8.46Zm81.6,63.47L202.7,222.82a4.23,4.23,0,0,0-3.31-1.59H114.77a4.23,4.23,0,0,0-3.31,1.59L95.81,242.39H85.33l23-29.62h97.42l23,29.62Zm-6.2-46.55a4.27,4.27,0,0,1,3.35,1.66l29.38,38.18a4.17,4.17,0,0,1-6.59,5.1l-27.1-34.84a4.23,4.23,0,0,0-3.34-1.64H111.53a4.2,4.2,0,0,1-3.78-2.33L83.08,152.64a5.29,5.29,0,0,1-.55-2.34A5.23,5.23,0,0,1,92.44,148l22.77,45.54a4.22,4.22,0,0,0,3.79,2.34Zm-50.77-8.46,3-5.49,2.75,5.49Zm-.3-16.93h-10l36-65a42.12,42.12,0,0,1,7.62,4.25Zm44.24-63-.4-.37a50.39,50.39,0,0,0-21.3-11.79l-.52-.14L188.17,86a54.18,54.18,0,0,1,16.67-18.34l12.9-8.86-.65,15.64a54.29,54.29,0,0,1-6.7,23.86ZM231,121.66h0a50.14,50.14,0,0,0-18.23-10.16l5-9.07a62.77,62.77,0,0,0,7.75-27.61l.29-6.75,4.47,9.59A54.13,54.13,0,0,1,231,121.66ZM262,132l-.26,6.21-2-1.68a50.5,50.5,0,0,0-19.51-10.2l-1.87-.5A62.65,62.65,0,0,0,238,74.08l-3.35-7.18A82.52,82.52,0,0,1,262,132Z" />
    <path
        d="M56.17,195.86l3.55-24.81a5.66,5.66,0,0,0,0-.6,4.24,4.24,0,0,0-4.23-4.23H42.83v-8.46a4.2,4.2,0,0,0-1.24-3l-4.23-4.23a4.23,4.23,0,1,0-6,6l3,3v6.71H30.14a4,4,0,0,0-.6.05A4.23,4.23,0,0,0,26,171.05l3.54,24.81a12.7,12.7,0,0,0-.71,25.3l-6.94,24.29A4.23,4.23,0,1,0,30,247.78l2.75-9.62H52.94l2.75,9.62a4.23,4.23,0,1,0,8.14-2.33l-6.95-24.29a12.69,12.69,0,0,0-.71-25.3Zm-5.52-21.17L50,178.92H35.62l-.6-4.23Zm-1.82,12.69-1.2,8.46H38l-1.21-8.46ZM35.14,229.69l2.42-8.46H48.1l2.42,8.46Zm20.39-16.92H30.14a4.24,4.24,0,0,1,0-8.47H55.53a4.24,4.24,0,0,1,0,8.47Z" />
</svg>
