<?xml version="1.0" encoding="UTF-8"?>
<svg width="20px" height="20px" viewBox="0 0 20 20" version="1.1" xmlns="http://www.w3.org/2000/svg" xmlns:xlink="http://www.w3.org/1999/xlink">
    <!-- Generator: Sketch 58 (84663) - https://sketch.com -->
    <title>Shape</title>
    <desc>Created with Sketch.</desc>
    <g id="New-Ideas" stroke="none" stroke-width="1" fill="none" fill-rule="evenodd">
        <g id="First-Task-Prompt" transform="translate(-352.000000, -681.000000)" fill="#00303A" fill-rule="nonzero">
            <g id="Bottom-Nav" transform="translate(0.000000, 658.000000)">
                <g id="Nav-Options" transform="translate(27.000000, 13.000000)">
                    <g id="Blocked" transform="translate(315.000000, 7.000000)">
                        <g id="Group-8" transform="translate(7.000000, 0.000000)">
                            <path d="M13,3 C7.48,3 3,7.48 3,13 C3,18.52 7.48,23 13,23 C18.52,23 23,18.52 23,13 C23,7.48 18.52,3 13,3 Z M5,13 C5,8.58 8.58,5 13,5 C14.85,5 16.55,5.63 17.9,6.69 L6.69,17.9 C5.63,16.55 5,14.85 5,13 Z M13,21 C11.15,21 9.45,20.37 8.1,19.31 L19.31,8.1 C20.37,9.45 21,11.15 21,13 C21,17.42 17.42,21 13,21 Z" id="Shape"></path>
                        </g>
                    </g>
                </g>
            </g>
        </g>
    </g>
</svg>