<svg id="Layer_1" data-name="Layer 1" xmlns="http://www.w3.org/2000/svg" viewBox="0 0 288 288">
    <path
        d="M255.39,215.84a13.6,13.6,0,0,0,.78-4.55,14,14,0,0,0-1.46-6.18L246.16,188a64.81,64.81,0,0,0-17.33-21.44,37.93,37.93,0,0,0-21.17-8.13,16.34,16.34,0,0,0-13.83-7.77h-7.66a16.26,16.26,0,0,0-11.5,4.83,16.34,16.34,0,0,0-10.5-4.8v-45l0-.62h0a12.52,12.52,0,0,0-12.49-11.89L75,93.17a12.51,12.51,0,0,0-12.5,12.5v2.83H55.83a31.7,31.7,0,0,0-31.66,31.67v3.07A52.57,52.57,0,0,0,62.5,193.77v11.56a19.72,19.72,0,0,0,3,10.5H32.83a8.67,8.67,0,0,0-8.66,8.67v15.33a8.67,8.67,0,0,0,8.66,8.67H255.17a8.67,8.67,0,0,0,8.66-8.67V224.5A8.67,8.67,0,0,0,255.39,215.84ZM49.17,141.08a7.56,7.56,0,0,1,10.95-6.78l2.38,1.19V167a28.74,28.74,0,0,1-13.33-24.23Zm-9.67,0v1.7a38.32,38.32,0,0,0,23,35.2v5.67a43.24,43.24,0,0,1-28.67-40.4v-3.07a22,22,0,0,1,22-22H62.5v6.68a17.17,17.17,0,0,0-23,16.22Zm115-35.42v45a16.41,16.41,0,0,0-12.81,7.74,37.93,37.93,0,0,0-21.16,8.13A64.61,64.61,0,0,0,103.18,188l-8.55,17.1a13.79,13.79,0,0,0-.69,10.72H82.67a10.51,10.51,0,0,1-10.5-10.5V105.67A2.84,2.84,0,0,1,75,102.83h76.67a2.8,2.8,0,0,1,2.81,2.82ZM103.27,209.43l8.55-17.1a55.08,55.08,0,0,1,14.72-18.21,28,28,0,0,1,12.63-5.63v47.34H106.8l-1.68-.84a4.11,4.11,0,0,1-2.29-3.7A4.31,4.31,0,0,1,103.27,209.43ZM169.83,167v48.83h-21V167a6.67,6.67,0,0,1,6.67-6.67h7.67A6.67,6.67,0,0,1,169.83,167Zm9.67,0a6.67,6.67,0,0,1,6.67-6.67h7.66A6.67,6.67,0,0,1,200.5,167v48.83h-21Zm30.67,48.83V168.49a27.86,27.86,0,0,1,12.62,5.63,55.08,55.08,0,0,1,14.72,18.21l8.55,17.1a4.17,4.17,0,0,1,.44,1.86,4.12,4.12,0,0,1-2.28,3.7l-1.69.84Zm44,23H33.83V225.5H254.17Z" />
    <path
        d="M70.17,71.18c0,5.84,3.16,9,5.25,11.08,1.83,1.83,2.41,2.5,2.41,4.24v1H87.5v-1c0-5.84-3.16-9-5.25-11.08-1.84-1.83-2.42-2.5-2.42-4.24s.58-2.41,2.42-4.25c2.09-2.09,5.25-5.25,5.25-11.09s-3.16-9-5.25-11.09c-1.84-1.83-2.42-2.5-2.42-4.25v-1H70.17v1c0,5.84,3.15,9,5.25,11.09,1.83,1.83,2.41,2.5,2.41,4.25s-.58,2.42-2.42,4.26C73.32,62.19,70.17,65.34,70.17,71.18Z" />
    <path
        d="M93.17,71.18c0,5.84,3.16,9,5.25,11.08,1.83,1.83,2.41,2.5,2.41,4.24v1h9.67v-1c0-5.84-3.16-9-5.25-11.08-1.84-1.83-2.42-2.5-2.42-4.24s.58-2.41,2.42-4.25c2.09-2.09,5.25-5.25,5.25-11.09s-3.16-9-5.25-11.09c-1.84-1.83-2.42-2.5-2.42-4.25v-1H93.17v1c0,5.84,3.15,9,5.25,11.09,1.83,1.83,2.41,2.5,2.41,4.25s-.58,2.42-2.42,4.26C96.32,62.19,93.17,65.34,93.17,71.18Z" />
    <path
        d="M116.17,71.18c0,5.84,3.16,9,5.25,11.08,1.83,1.83,2.41,2.5,2.41,4.24v1h9.67v-1c0-5.84-3.16-9-5.25-11.08-1.84-1.83-2.42-2.5-2.42-4.24s.58-2.41,2.42-4.25c2.09-2.09,5.25-5.25,5.25-11.09s-3.16-9-5.25-11.09c-1.84-1.83-2.42-2.5-2.42-4.25v-1h-9.66v1c0,5.84,3.15,9,5.25,11.09,1.83,1.83,2.41,2.5,2.41,4.25s-.58,2.42-2.42,4.26C119.32,62.19,116.17,65.34,116.17,71.18Z" />
</svg>
