<?xml version="1.0" encoding="UTF-8"?>
<svg width="17px" height="18px" viewBox="0 0 17 18" version="1.1" xmlns="http://www.w3.org/2000/svg" xmlns:xlink="http://www.w3.org/1999/xlink">
    <!-- Generator: Sketch 58 (84663) - https://sketch.com -->
    <title>Shape</title>
    <desc>Created with Sketch.</desc>
    <g id="New-Ideas" stroke="none" stroke-width="1" fill="none" fill-rule="evenodd">
        <g id="First-Task-Prompt" transform="translate(-270.000000, -680.000000)" fill="#00303A" fill-rule="nonzero">
            <g id="Bottom-Nav" transform="translate(0.000000, 658.000000)">
                <g id="Nav-Options" transform="translate(27.000000, 13.000000)">
                    <g id="Scheduled" transform="translate(225.000000, 5.000000)">
                        <g id="Group-6" transform="translate(13.000000, 0.000000)">
                            <g id="24px-(4)" transform="translate(5.000000, 4.000000)">
                                <path d="M14.7272727,1.63636364 L13.9090909,1.63636364 L13.9090909,0 L12.2727273,0 L12.2727273,1.63636364 L4.09090909,1.63636364 L4.09090909,0 L2.45454545,0 L2.45454545,1.63636364 L1.63636364,1.63636364 C0.736363636,1.63636364 0,2.37272727 0,3.27272727 L0,16.3636364 C0,17.2636364 0.736363636,18 1.63636364,18 L14.7272727,18 C15.6272727,18 16.3636364,17.2636364 16.3636364,16.3636364 L16.3636364,3.27272727 C16.3636364,2.37272727 15.6272727,1.63636364 14.7272727,1.63636364 Z M13.7272727,15.3636364 L2.63636364,15.3636364 L2.63636364,5.72727273 L13.7272727,5.72727273 L13.7272727,15.3636364 Z" id="Shape"></path>
                            </g>
                        </g>
                    </g>
                </g>
            </g>
        </g>
    </g>
</svg>