<svg height='100px' width='100px'  fill="#000000" xmlns="http://www.w3.org/2000/svg" xmlns:xlink="http://www.w3.org/1999/xlink" version="1.0" x="0px" y="0px" viewBox="0 0 26 26" style="enable-background:new 0 0 26 26;" xml:space="preserve"><g><path d="M7.219,0.375L3.792,4.659L1.555,3.168C1.094,2.86,0.474,2.986,0.168,3.445s-0.182,1.081,0.277,1.387l3,2   C3.615,6.945,3.808,7,4,7c0.294,0,0.585-0.13,0.781-0.375l4-5c0.345-0.431,0.275-1.061-0.156-1.405   C8.194-0.126,7.564-0.056,7.219,0.375z"></path><path d="M7.219,9.375l-3.427,4.284l-2.237-1.491c-0.46-0.308-1.081-0.183-1.387,0.277c-0.306,0.459-0.182,1.08,0.277,1.387l3,2   C3.615,15.945,3.808,16,4,16c0.294,0,0.585-0.13,0.781-0.375l4-5c0.345-0.431,0.275-1.061-0.156-1.405   C8.194,8.875,7.564,8.943,7.219,9.375z"></path><path d="M7.219,18.375l-3.427,4.284l-2.237-1.491c-0.46-0.307-1.081-0.182-1.387,0.277c-0.306,0.46-0.182,1.08,0.277,1.387l3,2   C3.615,24.945,3.808,25,4,25c0.294,0,0.585-0.13,0.781-0.375l4-5c0.345-0.432,0.275-1.061-0.156-1.406   C8.194,17.875,7.564,17.944,7.219,18.375z"></path><rect x="12" y="21" width="14" height="2"></rect><rect x="12" y="12" width="14" height="2"></rect><rect x="12" y="3" width="14" height="2"></rect></g></svg>