<?xml version="1.0" encoding="utf-8"?>
<!-- Generator: Adobe Illustrator 25.0.0, SVG Export Plug-In . SVG Version: 6.00 Build 0)  -->
<svg version="1.1" id="Layer_1" xmlns="http://www.w3.org/2000/svg" xmlns:xlink="http://www.w3.org/1999/xlink" x="0px"
	y="0px" viewBox="0 0 512 512" style="enable-background:new 0 0 512 512;" xml:space="preserve">
	<path class="st0" d="M369.2,174.8c7.8,7.8,7.8,20.5,0,28.3L235,337.2c-7.8,7.8-20.5,7.8-28.3,0l-63.9-63.9c-7.8-7.8-7.8-20.5,0-28.3
	c7.8-7.8,20.5-7.8,28.3,0l49.7,49.7l120-120C348.7,167,361.4,167,369.2,174.8z M512,256c0,141.5-114.5,256-256,256
	C114.5,512,0,397.5,0,256C0,114.5,114.5,0,256,0C397.5,0,512,114.5,512,256z M472,256c0-119.4-96.6-216-216-216
	C136.6,40,40,136.6,40,256c0,119.4,96.6,216,216,216C375.4,472,472,375.4,472,256z" />
</svg>
