<?xml version="1.0" encoding="UTF-8"?>
<svg width="35px" height="27px" viewBox="0 0 35 27" version="1.1" xmlns="http://www.w3.org/2000/svg" xmlns:xlink="http://www.w3.org/1999/xlink">
    <!-- Generator: Sketch 58 (84663) - https://sketch.com -->
    <title>Group 2</title>
    <desc>Created with Sketch.</desc>
    <g id="New-Ideas" stroke="none" stroke-width="1" fill="none" fill-rule="evenodd">
        <g id="First-Task-Prompt" transform="translate(-187.000000, -33.000000)">
            <g id="Group-2" transform="translate(203.000000, 51.000000) rotate(21.000000) translate(-203.000000, -51.000000) translate(183.000000, 30.000000)">
                <g id="Group" transform="translate(20.056229, 20.914745) rotate(-150.000000) translate(-20.056229, -20.914745) translate(7.556229, 4.414745)" fill="#FFFFFF">
                    <path d="M19.5594047,3.10147669 L23.991034,28.2222809 C24.3334154,30.1630783 23.0376431,32.0139604 21.0968457,32.3563417 L21.0962615,32.3564447 C20.8690986,32.3964802 20.6431702,32.4140822 20.4207491,32.4108423 C20.2531973,32.4365971 20.0809217,32.4509605 19.905614,32.4528362 L4.25271599,32.6203133 C2.30362959,32.6411674 0.706677268,31.0780263 0.685823154,29.1289399 L0.685621156,29.0911802 L0.685621156,29.0911802 C0.685621156,27.1148716 2.27652054,25.5068595 4.25271599,25.4857153 L16.2366212,25.3564483 L12.5297809,4.34038664 C12.1988123,2.46428249 13.3986072,0.672199217 15.2320764,0.245539763 L15.4245535,0.206222811 L15.4245535,0.206222811 C17.365825,-0.135909381 19.2169498,1.16026207 19.5594047,3.10147669 Z" id="Combined-Shape"></path>
                </g>
                <circle id="Oval" fill="#00303A" cx="24.1522328" cy="19.8864121" r="3.94444444"></circle>
            </g>
        </g>
    </g>
</svg>