<svg xmlns="http://www.w3.org/2000/svg" version="1.1" x="0px" y="0px" viewBox="0 0 100 100"><g transform="translate(0,-952.36218)"><path d="m 50,979.36216 c -1.6568,0 -3,1.34315 -3,3 l 0,17.00004 -17,0 c -1.6568,0 -3,1.3431 -3,3 0,1.6568 1.3432,3 3,3 l 17,0 0,17 c 0,1.6568 1.3432,3 3,3 1.6569,0 3,-1.3432 3,-3 l 0,-17 17,0 c 1.6568,0 3,-1.3432 3,-3 0,-1.6569 -1.3432,-3 -3,-3 l -17,0 0,-17.00004 c 0,-1.65685 -1.3431,-3 -3,-3 z" style="text-indent:0;text-transform:none;direction:ltr;block-progression:tb;baseline-shift:baseline;enable-background:accumulate;" fill-opacity="1" stroke="none" marker="none" visibility="visible" display="inline" overflow="visible"/></g></svg>
