<svg id="Layer_1" data-name="Layer 1" xmlns="http://www.w3.org/2000/svg" viewBox="0 0 288 288">
    <path
        d="M181.58,125.7a37.64,37.64,0,1,0-75.27,0,4.59,4.59,0,0,0,4.59,4.59H177A4.6,4.6,0,0,0,181.58,125.7ZM139.41,97.61v23.5H115.85A28.53,28.53,0,0,1,139.41,97.61Zm9.18,23.5V97.63A28.54,28.54,0,0,1,172,121.11Z" />
    <path
        d="M260.16,233.6l-72.71-72.7a56,56,0,0,0,9.09-16h13.38a15.61,15.61,0,1,0,28.43,0h18.56a4.6,4.6,0,0,0,4.59-4.59V126.47a4.58,4.58,0,0,0-3.57-4.47l-59.39-13.59a4.55,4.55,0,0,0-1.37-.1,55.92,55.92,0,0,0-11.45-19.85h16.84a4.58,4.58,0,0,0,4.59-4.59V69.72a4.59,4.59,0,0,0-4-4.55l-43.34-5.82-3.17-28.76a4.58,4.58,0,0,0-4.56-4.09H135.9a4.58,4.58,0,0,0-4.56,4.09l-3.16,28.74L84.71,65.17a4.59,4.59,0,0,0-4,4.55V83.87a4.59,4.59,0,0,0,4.59,4.59h16.84a56.07,56.07,0,0,0-11.45,19.85,4.84,4.84,0,0,0-1.25.1L30.07,122a4.58,4.58,0,0,0-3.57,4.47v13.86a4.59,4.59,0,0,0,4.59,4.59H49.53a15.61,15.61,0,1,0,28.43,0H91.34a56.24,56.24,0,0,0,9.09,16L27.84,233.49a4.59,4.59,0,0,0,6.5,6.49l72.43-72.44a56.28,56.28,0,0,0,8.32,6.13L60,254.32a4.59,4.59,0,1,0,7.57,5.18l55.86-81.71a56.06,56.06,0,0,0,41,.05L220,259.36a4.59,4.59,0,0,0,3.79,2,4.53,4.53,0,0,0,2.59-.81,4.59,4.59,0,0,0,1.19-6.38l-54.87-80.43a55.86,55.86,0,0,0,8.44-6.2l72.55,72.55a4.59,4.59,0,1,0,6.5-6.49Zm-29.6-82.26a6.43,6.43,0,1,1-6.42-6.42A6.43,6.43,0,0,1,230.56,151.34Zm21.76-21.21v5.61H199a56.38,56.38,0,0,0,.9-10,55.51,55.51,0,0,0-.53-7.67ZM198,73.74v5.54H175.23a55.7,55.7,0,0,0-14-6.83l-.41-3.7ZM148,35.68l3.8,34.58a55,55,0,0,0-7.85-.56,56.38,56.38,0,0,0-7.73.54L140,35.68ZM89.91,73.74l37.23-5-.4,3.68a55.81,55.81,0,0,0-14.09,6.87H89.91Zm-19.74,77.6a6.43,6.43,0,1,1-6.42-6.42A6.43,6.43,0,0,1,70.17,151.34Zm-34.49-15.6v-5.61l52.79-12.08a55.68,55.68,0,0,0,.38,17.69Zm61.45-10a46.82,46.82,0,1,1,46.81,46.81A46.87,46.87,0,0,1,97.13,125.7Z" />
    <path d="M144,189.9a4.58,4.58,0,0,0-4.59,4.59v8.26a4.59,4.59,0,0,0,9.18,0v-8.26A4.58,4.58,0,0,0,144,189.9Z" />
    <path d="M144,217a4.58,4.58,0,0,0-4.59,4.59v8.26a4.59,4.59,0,0,0,9.18,0v-8.26A4.58,4.58,0,0,0,144,217Z" />
    <path d="M144,244.06a4.58,4.58,0,0,0-4.59,4.59v8.26a4.59,4.59,0,0,0,9.18,0v-8.26A4.58,4.58,0,0,0,144,244.06Z" />
</svg>
