<svg id="Layer_1" data-name="Layer 1" xmlns="http://www.w3.org/2000/svg" viewBox="0 0 288 288">
    <path
        d="M254.52,154.25a87.46,87.46,0,0,0-68-76.7v-11a14.73,14.73,0,0,0-3.56-29h-31.2a14.73,14.73,0,0,0-3.56,29v11a87,87,0,0,0-42.68,23.47,88.65,88.65,0,0,0-7.36,8.35H66.93a4.34,4.34,0,0,0,0,8.67H92.25a86.69,86.69,0,0,0-7.69,16.65H37.39a4.34,4.34,0,1,0,0,8.67H82.11A87.57,87.57,0,0,0,80,160H60.79a4.34,4.34,0,0,0,0,8.67h19.3a88.25,88.25,0,0,0,2.71,16.66H54.72a4.33,4.33,0,0,0,0,8.66H85.57a87.52,87.52,0,0,0,73.18,56.05c2.86.28,5.73.42,8.59.42a87.74,87.74,0,0,0,47.78-14.12,4.33,4.33,0,0,0-4.73-7.26,78.89,78.89,0,1,1,23.23-23.27,4.34,4.34,0,1,0,7.27,4.73A87.9,87.9,0,0,0,254.52,154.25Zm-108.85-102a6.07,6.07,0,0,1,6.07-6.07h31.2a6.07,6.07,0,1,1,0,12.13h-31.2A6.07,6.07,0,0,1,145.67,52.24Zm11.18,23.85V67h21v9.1A88.17,88.17,0,0,0,156.85,76.09Z" />
    <path d="M226.25,217.46a4.34,4.34,0,0,0-4.34,4.34,4.33,4.33,0,1,0,4.34-4.34Z" />
    <path
        d="M167.41,95.73A67.23,67.23,0,1,0,234.64,163,67.31,67.31,0,0,0,167.41,95.73Zm0,125.79A58.57,58.57,0,1,1,226,163,58.63,58.63,0,0,1,167.41,221.52Z" />
    <path
        d="M194.82,129.41l-21.47,21.47a13.41,13.41,0,0,0-11.89,0l-9.61-9.61a4.33,4.33,0,0,0-6.13,6.13l9.61,9.61a13.33,13.33,0,0,0-1.39,6,13.47,13.47,0,0,0,26.93,0,13.33,13.33,0,0,0-1.39-6l20.84-20.84h0l.63-.63a4.33,4.33,0,0,0-6.13-6.13Zm-27.41,38.35a4.8,4.8,0,1,1,4.79-4.8A4.81,4.81,0,0,1,167.41,167.76Z" />
    <path d="M213.74,158.68h-4a4.33,4.33,0,1,0,0,8.66h4a4.33,4.33,0,1,0,0-8.66Z" />
    <path d="M125.08,158.57h-4a4.34,4.34,0,1,0,0,8.67h4a4.34,4.34,0,1,0,0-8.67Z" />
    <path d="M167.46,125a4.33,4.33,0,0,0,4.33-4.34v-4a4.34,4.34,0,0,0-8.67,0v4A4.34,4.34,0,0,0,167.46,125Z" />
    <path d="M167.35,201a4.33,4.33,0,0,0-4.33,4.33v4a4.34,4.34,0,0,0,8.67,0v-4A4.33,4.33,0,0,0,167.35,201Z" />
</svg>
