<?xml version="1.0" encoding="UTF-8"?>
<svg width="14px" height="14px" viewBox="0 0 14 14" version="1.1" xmlns="http://www.w3.org/2000/svg" xmlns:xlink="http://www.w3.org/1999/xlink">
    <!-- Generator: Sketch 58 (84663) - https://sketch.com -->
    <title>Combined Shape</title>
    <desc>Created with Sketch.</desc>
    <g id="New-Ideas" stroke="none" stroke-width="1" fill="none" fill-rule="evenodd">
        <g id="First-Task-Prompt" transform="translate(-35.000000, -684.000000)" fill="#00303A">
            <g id="Bottom-Nav" transform="translate(0.000000, 658.000000)">
                <g id="Nav-Options" transform="translate(27.000000, 13.000000)">
                    <g id="Now" transform="translate(0.000000, 6.000000)">
                        <g id="24px-(2)" transform="translate(1.000000, 0.000000)">
                            <path d="M14.6196995,7.30576628 L21.0012511,12.3363127 L21.0012511,20.0037539 C21.0012511,20.5560386 20.5535358,21.0037539 20.0012511,21.0037539 L8,21.0037539 C7.44771525,21.0037539 7,20.5560386 7,20.0037539 L7,12.3363127 L13.3815516,7.30576628 C13.7446428,7.01954318 14.2566083,7.01954318 14.6196995,7.30576628 Z M13.9990385,9.68557211 L8.99700461,13.6697652 L8.99700461,19.0035752 L12.3338099,19.0035752 L12.3338099,16.669944 C12.3338099,16.1176592 12.7815252,15.669944 13.3338099,15.669944 L14.6674411,15.669944 C15.2197259,15.669944 15.6674411,16.1176592 15.6674411,16.669944 L15.6674411,19.0035752 L19.0010723,19.0035752 L19.0010723,13.6697652 L13.9990385,9.68557211 Z" id="Combined-Shape"></path>
                        </g>
                    </g>
                </g>
            </g>
        </g>
    </g>
</svg>