<?xml version="1.0" standalone="no"?>
<!DOCTYPE svg PUBLIC "-//W3C//DTD SVG 20010904//EN"
 "http://www.w3.org/TR/2001/REC-SVG-20010904/DTD/svg10.dtd">
<svg version="1.0" xmlns="http://www.w3.org/2000/svg"
 width="321.000000pt" height="321.000000pt" viewBox="0 0 321.000000 321.000000"
 preserveAspectRatio="xMidYMid meet">
<metadata>
Created by potrace 1.11, written by Peter Selinger 2001-2013
</metadata>
<g transform="translate(0.000000,321.000000) scale(0.100000,-0.100000)"
fill="#000000" stroke="none">
<path d="M1605 2926 c-66 -16 -108 -39 -162 -89 -107 -99 -137 -260 -74 -392
16 -33 44 -76 61 -95 31 -34 208 -222 381 -404 223 -234 229 -243 226 -345 -3
-86 -20 -118 -115 -217 -42 -45 -112 -119 -156 -165 -43 -46 -139 -148 -214
-227 -75 -79 -146 -158 -157 -175 -82 -123 -76 -292 15 -407 100 -126 279
-167 425 -96 64 32 78 46 506 496 19 20 120 125 224 233 382 399 376 391 397
507 9 47 9 75 0 120 -17 82 -43 125 -126 213 -73 77 -332 348 -436 457 -30 31
-128 133 -216 226 -260 272 -277 290 -311 313 -73 49 -179 68 -268 47z"/>
<path d="M494 2585 c-218 -50 -321 -285 -215 -492 11 -22 97 -116 191 -209 95
-93 178 -181 186 -196 18 -34 23 -94 12 -136 -9 -33 -48 -75 -239 -257 -155
-148 -187 -200 -193 -315 -13 -243 227 -415 459 -330 57 21 79 41 448 413 223
225 398 408 410 432 29 55 29 164 0 220 -12 22 -62 83 -113 135 -635 656 -633
653 -675 685 -71 52 -177 72 -271 50z"/>
</g>
</svg>
