<svg id="Layer_1" data-name="Layer 1" xmlns="http://www.w3.org/2000/svg" viewBox="0 0 76.87 68.04">
    <path
        d="M36.07,38.29h0A6,6,0,0,0,37.84,34s0-.07,0-.11a6,6,0,0,0-2.11-4.45v0L19.45,12.68h0l0,0h0A8.07,8.07,0,0,0,7.86,23.91h0l.14.13.08.09,7.07,7a4.26,4.26,0,0,1,0,5.78L8.19,43.56h0A8.06,8.06,0,1,0,19.65,54.9l0,0L36.06,38.3Z" />
    <path
        d="M71.22,34s0-.07,0-.11a8.25,8.25,0,0,0-2.9-6.16V27.7L46.44,4.78l-.28-.3-.07-.07h0A8.3,8.3,0,1,0,34.69,16.49h0L47.48,30.05a5.79,5.79,0,0,1,0,7.94L34.91,51.32l0,0A8.29,8.29,0,1,0,46.56,63.11l0,0L68.78,39.9h0l0,0h0A8.28,8.28,0,0,0,71.22,34Z" />
</svg>
